<?xml version="1.0" standalone="no"?>
<svg viewBox="0 0 200 200" xmlns="http://www.w3.org/2000/svg">
  <path fill="#171820" d="M23.5,-50.1C26,-39.3,20.3,-23.9,29.2,-14.8C38.1,-5.6,61.5,-2.8,69.6,4.6C77.6,12.1,70.2,24.2,63,36.2C55.8,48.3,48.8,60.3,38.3,57.4C27.8,54.4,13.9,36.6,1.4,34.1C-11,31.6,-22.1,44.5,-29.5,45.7C-36.9,46.8,-40.7,36.3,-49.1,26.7C-57.5,17.1,-70.5,8.6,-72.3,-1C-74,-10.6,-64.6,-21.2,-54.1,-27.2C-43.7,-33.2,-32.2,-34.6,-23,-41.5C-13.9,-48.4,-6.9,-60.9,1.8,-64C10.5,-67.1,21.1,-60.9,23.5,-50.1Z" transform="translate(100 100)" />
</svg>
